<svg id="Capa_1" data-name="Capa 1" xmlns="http://www.w3.org/2000/svg" viewBox="0 0 279.34 118.57"><defs><style>.cls-1{fill:#1d1d1b;opacity:0.22;}.cls-2{fill:#09f;}.cls-3,.cls-9{fill:#fff;}.cls-4{fill:none;}.cls-5{fill:#fbbc05;}.cls-5,.cls-6,.cls-7,.cls-8{fill-rule:evenodd;}.cls-6{fill:#ea4335;}.cls-7{fill:#34a853;}.cls-8{fill:#4285f4;}.cls-9{font-size:21.51px;font-family:MyriadPro-Regular, Myriad Pro;}.cls-10{letter-spacing:0em;}.cls-11{letter-spacing:0em;}</style></defs><rect class="cls-1" x="0.2" width="278.2" height="49.38" rx="10.75"/><rect class="cls-2" width="276.52" height="48.14" rx="10.75"/><rect class="cls-3" x="5.88" y="4.38" width="47.35" height="40.18" rx="12.22"/><g id="_1_stroke" data-name="1 stroke"><g id="Google"><rect class="cls-4" x="14.94" y="13.65" width="29.24" height="21.64"/><path class="cls-5" d="M168.48,62.37a5,5,0,0,1,.44-2L164,57.58a8.4,8.4,0,0,0,0,9.58l4.93-2.79a4.9,4.9,0,0,1-.44-2" transform="translate(-147.24 -37.9)"/><path class="cls-6" d="M177.13,56a10.48,10.48,0,0,1,5.39,1.42l4.26-3.14a17.71,17.71,0,0,0-9.65-2.71c-5.78,0-10.76,2.45-13.14,6l4.93,2.78c1.14-2.55,4.37-4.38,8.21-4.38" transform="translate(-147.24 -37.9)"/><path class="cls-7" d="M177.13,68.77c-3.84,0-7.07-1.84-8.21-4.39L164,67.17c2.38,3.58,7.36,6,13.14,6a17,17,0,0,0,9.54-2.69L182,67.82a11.5,11.5,0,0,1-4.86,1" transform="translate(-147.24 -37.9)"/><path class="cls-8" d="M191.11,62.37a6.67,6.67,0,0,0-.34-2H177.13v4.18H185a5.14,5.14,0,0,1-3,3.23l4.68,2.68a9.63,9.63,0,0,0,4.44-8.13" transform="translate(-147.24 -37.9)"/></g></g><text class="cls-9" transform="translate(80.55 30.62) scale(0.95 1)">Sing in with <tspan class="cls-10" x="110.16" y="0">G</tspan><tspan class="cls-11" x="124.16" y="0">oogle</tspan></text><rect class="cls-1" x="1.14" y="69.19" width="278.2" height="49.38" rx="10.75"/><rect class="cls-2" x="0.94" y="69.19" width="276.52" height="48.14" rx="10.75"/><rect class="cls-3" x="6.82" y="73.57" width="47.35" height="40.18" rx="12.22"/><g id="_1_stroke-2" data-name="1 stroke"><g id="Google-2" data-name="Google"><rect class="cls-4" x="15.88" y="82.84" width="29.24" height="21.64"/><path class="cls-5" d="M169.42,131.56a5,5,0,0,1,.44-2l-4.93-2.78a8.4,8.4,0,0,0,0,9.58l4.92-2.79a5.06,5.06,0,0,1-.43-2" transform="translate(-147.24 -37.9)"/><path class="cls-6" d="M178.07,125.17a10.48,10.48,0,0,1,5.39,1.42l4.26-3.15a17.82,17.82,0,0,0-9.65-2.7c-5.78,0-10.76,2.45-13.14,6l4.93,2.78c1.13-2.55,4.37-4.38,8.21-4.38" transform="translate(-147.24 -37.9)"/><path class="cls-7" d="M178.07,138c-3.84,0-7.08-1.83-8.21-4.38l-4.93,2.78c2.38,3.58,7.36,6,13.14,6a17,17,0,0,0,9.54-2.7L182.93,137a11.66,11.66,0,0,1-4.86.94" transform="translate(-147.24 -37.9)"/><path class="cls-8" d="M192,131.56a6.78,6.78,0,0,0-.33-2H178.07v4.18h7.85a5.13,5.13,0,0,1-3,3.24l4.68,2.67a9.59,9.59,0,0,0,4.43-8.12" transform="translate(-147.24 -37.9)"/></g></g><text class="cls-9" transform="translate(81.49 99.81) scale(0.95 1)">Sing up with <tspan class="cls-10" x="117.28" y="0">G</tspan><tspan class="cls-11" x="131.28" y="0">oogle</tspan></text></svg>