<?xml version="1.0" encoding="utf-8"?>
<!-- Generator: Adobe Illustrator 25.2.1, SVG Export Plug-In . SVG Version: 6.00 Build 0)  -->
<svg version="1.1" id="Capa_1" xmlns="http://www.w3.org/2000/svg" xmlns:xlink="http://www.w3.org/1999/xlink" x="0px" y="0px"
	 viewBox="0 0 1440 320" style="enable-background:new 0 0 1440 320;" xml:space="preserve">
<style type="text/css">
	.st0{fill:#0099FF;}
</style>
<path class="st0" d="M169.1,268.9l13.5,3.4c13.5,3.3,40.4,10.3,67.4,5.1c27-5,53.9-22.3,80.9-18.8c27,3.5,53.9,27.2,80.9,32.4
	c27,5,53.9-8.4,80.9-22.1c27-13.7,53.9-27.2,67.4-34.1l13.5-6.8v92H560c-13.5,0-40.4,0-67.4,0c-27,0-53.9,0-80.9,0s-53.9,0-80.9,0
	c-27,0-53.9,0-80.9,0s-53.9,0-67.4,0h-13.5V268.9z"/>
</svg>
