<?xml version="1.0" encoding="utf-8"?>
<!-- Generator: Adobe Illustrator 25.2.1, SVG Export Plug-In . SVG Version: 6.00 Build 0)  -->
<svg version="1.1" id="Capa_1" xmlns="http://www.w3.org/2000/svg" xmlns:xlink="http://www.w3.org/1999/xlink" x="0px" y="0px"
	 viewBox="0 0 1440 320" style="enable-background:new 0 0 1440 320;" xml:space="preserve">
<style type="text/css">
	.st0{fill:#0099FF;}
</style>
<path class="st0" d="M169.1,46.8l13.5,3.1c13.5,3,40.4,9.4,67.4,4.7c27-4.6,53.9-20.4,80.9-17.2s53.9,24.8,80.9,29.6
	c27,4.6,53.9-7.7,80.9-20.3s53.9-24.8,67.4-31.2l13.5-6.2V0H560c-13.5,0-40.4,0-67.4,0s-53.9,0-80.9,0s-53.9,0-80.9,0S276.9,0,250,0
	s-53.9,0-67.4,0h-13.5V46.8z"/>
</svg>
